<svg width="10" height="10" viewBox="0 0 10 10" fill="none" xmlns="http://www.w3.org/2000/svg">
<path d="M7.91667 7.91667H2.08333V3.33333H7.91667M6.66667 0.416667V1.25H3.33333V0.416667H2.5V1.25H2.08333C1.625 1.25 1.25 1.625 1.25 2.08333V7.91667C1.25 8.13768 1.3378 8.34964 1.49408 8.50592C1.65036 8.6622 1.86232 8.75 2.08333 8.75H7.91667C8.37917 8.75 8.75 8.37917 8.75 7.91667V2.08333C8.75 1.86232 8.6622 1.65036 8.50592 1.49408C8.34964 1.3378 8.13768 1.25 7.91667 1.25H7.5V0.416667M4.53333 5H3.02917L4.24583 5.87917L3.78333 7.31667L5 6.42917L6.21667 7.31667L5.75 5.88333L6.96667 5H5.46667L5 3.56667L4.53333 5Z" fill="#666666"/>
</svg>
