<svg width="40" height="40" viewBox="0 0 30 30" fill="none" xmlns="http://www.w3.org/2000/svg">
<path d="M20 1.66666V28.3333M1.66667 5C1.66667 4.11594 2.01786 3.2681 2.64298 2.64297C3.2681 2.01785 4.11595 1.66666 5.00001 1.66666H25C25.8841 1.66666 26.7319 2.01785 27.357 2.64297C27.9821 3.2681 28.3333 4.11594 28.3333 5V25C28.3333 25.8841 27.9821 26.7319 27.357 27.357C26.7319 27.9821 25.8841 28.3333 25 28.3333H5.00001C4.11595 28.3333 3.2681 27.9821 2.64298 27.357C2.01786 26.7319 1.66667 25.8841 1.66667 25V5Z" stroke="#666666" stroke-width="3.33333" stroke-linecap="round" stroke-linejoin="round"/>
<path d="M10 11.6667L13.3333 15L10 18.3333" stroke="#666666" stroke-width="3.33333" stroke-linecap="round" stroke-linejoin="round"/>
</svg>
