<svg width="16" height="16" viewBox="0 0 16 16" fill="none" xmlns="http://www.w3.org/2000/svg">
<g clip-path="url(#clip0_136_2)">
<path d="M10.495 6.92L11.773 6.301C11.843 6.2672 11.9039 6.21698 11.9503 6.15463C11.9968 6.09228 12.0275 6.01963 12.0399 5.94285C12.0522 5.86608 12.0459 5.78745 12.0214 5.71366C11.9968 5.63987 11.9549 5.57309 11.899 5.519C11.647 5.275 11.217 5.38 10.967 5.626C10.737 5.852 10.454 5.999 10.151 6.156L10.049 6.21C9.71099 6.388 9.78499 6.836 10.149 6.946C10.2636 6.98086 10.3872 6.97222 10.495 6.92ZM7.74099 9.808V9.78C7.74091 9.71773 7.75492 9.65625 7.78196 9.60016C7.809 9.54407 7.84837 9.49482 7.89713 9.4561C7.94589 9.41737 8.00278 9.39017 8.06353 9.37654C8.12429 9.3629 8.18734 9.36318 8.24798 9.37735C8.30861 9.39152 8.36526 9.41922 8.41367 9.45837C8.46209 9.49752 8.50103 9.54712 8.52758 9.60344C8.55412 9.65977 8.56759 9.72137 8.56697 9.78363C8.56634 9.8459 8.55165 9.90722 8.52399 9.963L8.30399 10.406C8.27386 10.4681 8.23327 10.5246 8.18399 10.573L7.99099 10.758C7.95791 10.7945 7.91771 10.8237 7.87287 10.8441C7.82802 10.8644 7.77949 10.8753 7.73027 10.8761C7.68105 10.8769 7.63219 10.8676 7.58671 10.8488C7.54122 10.8299 7.50008 10.802 7.46582 10.7666C7.43157 10.7313 7.40493 10.6893 7.38755 10.6432C7.37017 10.5972 7.36241 10.548 7.36477 10.4989C7.36713 10.4497 7.37955 10.4015 7.40126 10.3574C7.42297 10.3132 7.4535 10.2739 7.49099 10.242L7.60299 10.134C7.64669 10.0917 7.68144 10.041 7.70515 9.98504C7.72886 9.92903 7.74105 9.86882 7.74099 9.808ZM5.67199 12.5L6.15399 12.733C6.2063 12.7585 6.2637 12.7718 6.32189 12.772C6.38008 12.7722 6.43756 12.7592 6.49002 12.734C6.54249 12.7088 6.58858 12.6721 6.62486 12.6266C6.66113 12.5811 6.68665 12.528 6.6995 12.4712C6.71236 12.4145 6.71221 12.3556 6.69908 12.2989C6.68595 12.2422 6.66017 12.1892 6.62367 12.1439C6.58717 12.0986 6.54089 12.0621 6.4883 12.0372C6.43572 12.0122 6.37818 11.9995 6.31999 12H5.90399C5.75301 11.9999 5.60607 11.9512 5.48499 11.861L5.20799 11.655C5.17376 11.6293 5.13445 11.6111 5.09267 11.6017C5.05089 11.5923 5.00759 11.5919 4.96565 11.6006C4.92371 11.6092 4.88408 11.6266 4.84939 11.6518C4.8147 11.6769 4.78576 11.7091 4.76446 11.7462C4.74317 11.7834 4.73003 11.8246 4.7259 11.8672C4.72177 11.9099 4.72675 11.9529 4.74051 11.9934C4.75427 12.034 4.7765 12.0711 4.80572 12.1024C4.83494 12.1337 4.87048 12.1585 4.90999 12.175L5.67199 12.5Z" fill="#666666"/>
<path d="M8 0C5.87827 0 3.84344 0.842855 2.34315 2.34315C0.842855 3.84344 0 5.87827 0 8C0 10.1217 0.842855 12.1566 2.34315 13.6569C3.84344 15.1571 5.87827 16 8 16C10.1217 16 12.1566 15.1571 13.6569 13.6569C15.1571 12.1566 16 10.1217 16 8C16 5.87827 15.1571 3.84344 13.6569 2.34315C12.1566 0.842855 10.1217 0 8 0ZM1.612 10.867L2.368 9.579C2.44385 9.44969 2.5478 9.33909 2.67216 9.25538C2.79652 9.17167 2.93811 9.11699 3.08645 9.09538C3.2348 9.07378 3.38611 9.08581 3.52918 9.13057C3.67225 9.17534 3.80342 9.2517 3.913 9.354L4.987 10.359C5.17175 10.5321 5.41602 10.6276 5.6692 10.6255C5.92238 10.6235 6.16508 10.5241 6.347 10.348L6.385 10.311C6.48467 10.2145 6.56016 10.0958 6.60533 9.96461C6.65051 9.83342 6.6641 9.69343 6.645 9.556C6.57 9.008 7.015 8.523 7.565 8.457C8.293 8.371 9.152 8.133 9.293 7.5C9.379 7.114 9.179 6.67 8.932 6.3C8.725 5.988 8.932 5.5 9.306 5.5C9.429 5.5 9.546 5.445 9.624 5.35L10.017 4.876C10.213 4.639 10.508 4.508 10.814 4.473C11.368 4.409 12.221 4.196 12.397 3.5C12.495 3.109 12.205 2.866 11.913 2.62C11.659 2.408 11.403 2.194 11.398 1.879C12.7263 2.61572 13.7789 3.76463 14.3968 5.15226C15.0147 6.53988 15.1643 8.09086 14.823 9.571C14.7951 9.54848 14.7661 9.52745 14.736 9.508L14.42 9.304C14.2759 9.2111 14.1104 9.1568 13.9393 9.14629C13.7683 9.13578 13.5973 9.16943 13.443 9.244L13.274 9.326C13.0427 9.4375 12.7774 9.45576 12.533 9.377L11.512 9.048C11.4128 9.0161 11.3092 8.99991 11.205 9H11.04C10.8319 9.00008 10.6291 9.06505 10.4597 9.18586C10.2903 9.30667 10.1628 9.47731 10.095 9.674L9.923 10.173C9.84973 10.3848 9.70745 10.5658 9.519 10.687L8.717 11.205C8.57654 11.2956 8.46103 11.4199 8.38102 11.5667C8.30102 11.7134 8.25906 11.8779 8.259 12.045V12.5C8.259 12.7652 8.36436 13.0196 8.55189 13.2071C8.73943 13.3946 8.99378 13.5 9.259 13.5H9.516C9.70829 13.5001 9.89647 13.5557 10.058 13.66L10.82 14.15C10.9072 14.2065 11.0027 14.249 11.103 14.276C10.2592 14.6932 9.33984 14.936 8.40003 14.9897C7.46022 15.0435 6.51921 14.9072 5.63329 14.589C4.74737 14.2707 3.93472 13.7771 3.24395 13.1376C2.55318 12.4981 1.99847 11.7258 1.613 10.867H1.612Z" fill="#666666"/>
</g>
<defs>
<clipPath id="clip0_136_2">
<rect width="16" height="16" fill="white"/>
</clipPath>
</defs>
</svg>
